<svg width="38" height="25" viewBox="0 0 38 25" fill="none" xmlns="http://www.w3.org/2000/svg">
<rect width="38" height="25" rx="2" fill="white"/>
<path d="M8.43687 3.00132L7.87172 3.00501C7.685 3.01115 7.49454 3.02098 7.30906 3.05416C7.02875 3.09789 6.76296 3.2067 6.53356 3.37163C6.30417 3.53656 6.11771 3.75291 5.98955 4.00286C5.90241 4.17245 5.84764 4.3445 5.81527 4.53129C5.78042 4.71316 5.76921 4.89995 5.76548 5.08429L5.7605 5.34113V19.5434C5.7605 19.6286 5.76174 19.7134 5.76423 19.7978C5.76921 19.9821 5.78042 20.1701 5.81403 20.3533C5.84639 20.5368 5.90531 20.7125 5.99079 20.8804C6.16273 21.2139 6.43729 21.4849 6.77503 21.6546C6.94682 21.7407 7.12109 21.796 7.3103 21.8291C7.49454 21.8623 7.68375 21.8734 7.87047 21.8783L8.1294 21.882H33.2674L33.5251 21.8783C33.7118 21.8734 33.9022 21.8623 34.0877 21.8291C34.2732 21.796 34.45 21.7419 34.6205 21.6559C34.9594 21.4867 35.2346 21.215 35.406 20.8804C35.4931 20.7109 35.5491 20.5388 35.5815 20.352C35.6151 20.1701 35.6263 19.9834 35.6313 19.799C35.6338 19.7138 35.635 19.6286 35.635 19.5434L35.6363 19.2411V5.3399C35.6363 5.25469 35.6346 5.1699 35.6313 5.08552C35.6289 4.89939 35.6123 4.7137 35.5815 4.53006C35.5212 4.16028 35.3444 3.81866 35.0763 3.55372C34.8081 3.28877 34.4622 3.11398 34.0877 3.05416C33.9017 3.02378 33.7136 3.00734 33.5251 3.00501C33.3371 2.99996 33.1491 2.99873 32.9611 3.00132H8.43687ZM8.43687 3.63051H33.2611C33.3425 3.63051 33.4242 3.63174 33.5064 3.6342C33.6495 3.63911 33.8176 3.64649 33.9732 3.67352C34.1089 3.6981 34.2222 3.73497 34.3305 3.78904C34.5487 3.89867 34.726 4.07378 34.8371 4.2892C34.8941 4.40062 34.9335 4.51996 34.9541 4.64312C34.9815 4.79427 34.989 4.96017 34.9927 5.10272C34.9952 5.18219 34.9964 5.26289 34.9964 5.34481V19.541C34.9964 19.6204 34.9952 19.7007 34.9927 19.7818C34.989 19.9231 34.9815 20.089 34.9529 20.2426C34.9256 20.4234 34.8549 20.595 34.7466 20.7432C34.6383 20.8914 34.4956 21.0118 34.3305 21.0943C34.2184 21.1503 34.0983 21.1892 33.9744 21.2098C33.8206 21.2324 33.6656 21.2456 33.5101 21.2491L33.2611 21.2528H8.13313C8.05014 21.2528 7.96882 21.2516 7.88915 21.2491C7.73286 21.2457 7.57695 21.2325 7.42234 21.2098C7.28665 21.1852 7.17337 21.1483 7.06383 21.0943C6.84451 20.9866 6.66698 20.8109 6.55843 20.5941C6.50145 20.4827 6.46199 20.3633 6.44142 20.2402C6.41655 20.0886 6.40324 19.9354 6.40158 19.7818L6.39909 19.5397V5.34358L6.40158 5.10149C6.40656 4.9614 6.41403 4.79673 6.44142 4.64066C6.46631 4.50794 6.50366 4.39611 6.55843 4.28797C6.6697 4.07301 6.84706 3.89835 7.06507 3.78904C7.17755 3.7329 7.29801 3.69395 7.42234 3.67352C7.57794 3.64649 7.74599 3.63788 7.88915 3.6342L8.13313 3.63051H8.43687ZM14.3 8.17741C13.9265 8.19707 13.4684 8.42195 13.2045 8.73778C12.9668 9.00814 12.7564 9.45054 12.8112 9.8659C13.2319 9.90277 13.6514 9.65822 13.9166 9.35222C14.1718 9.03517 14.346 8.6112 14.3 8.17863V8.17741ZM17.0473 8.69354V15.4438H18.1079V13.1372H19.5768C20.9187 13.1372 21.8611 12.2291 21.8611 10.9105C21.8611 9.59554 20.9374 8.69231 19.6104 8.69231L17.0473 8.69354ZM18.1079 9.57711H19.3303C20.2502 9.57711 20.7756 10.0638 20.7756 10.9154C20.7756 11.7658 20.2502 12.2573 19.3266 12.2573H18.1079V9.57711ZM14.1817 9.94578C13.6216 9.95807 13.1485 10.2899 12.8747 10.2899C12.5821 10.2899 12.1365 9.96544 11.6535 9.97404C11.3394 9.98227 11.033 10.0713 10.7644 10.2323C10.4959 10.3933 10.2746 10.6207 10.1224 10.892C9.46634 12.0079 9.94933 13.6632 10.5879 14.5726C10.8979 15.0223 11.2713 15.5176 11.763 15.4991C12.2274 15.4819 12.4103 15.2017 12.9743 15.2017C13.5394 15.2017 13.7037 15.4991 14.1942 15.4905C14.7046 15.4819 15.0245 15.0408 15.3332 14.5898C15.6892 14.0773 15.8349 13.5821 15.8436 13.5563C15.8349 13.5464 14.8602 13.1778 14.8514 12.0705C14.8415 11.1439 15.617 10.7028 15.6531 10.6757C15.2149 10.0367 14.5328 9.96544 14.2963 9.94701L14.1817 9.94578ZM24.3943 10.4336C23.1619 10.4336 22.3951 11.0886 22.3378 11.9771H23.305C23.3947 11.5372 23.7644 11.257 24.3569 11.257C24.9818 11.257 25.3565 11.5839 25.3565 12.1307V12.5105L23.9909 12.5891C22.8071 12.6555 22.1386 13.1839 22.1386 14.0441C22.1386 14.9289 22.8208 15.5274 23.7968 15.5274C24.4515 15.5274 25.0814 15.1821 25.3702 14.634H25.3939V15.4438H26.3748V12.0521C26.3748 11.0653 25.603 10.4336 24.3943 10.4336ZM26.8092 10.5221L28.6092 15.4487C28.6092 15.4524 28.5184 15.7437 28.5184 15.7523C28.3628 16.2561 28.1076 16.454 27.6333 16.454C27.5474 16.454 27.3769 16.454 27.3009 16.4355V17.254C27.3756 17.2675 27.6333 17.2773 27.7179 17.2773C28.7512 17.2773 29.2441 16.8939 29.6698 15.7007L31.5371 10.5221H30.4566L29.1968 14.5271H29.1781L27.9171 10.5209L26.8092 10.5221ZM25.3565 13.2122V13.6005C25.3565 14.2407 24.7963 14.7274 24.0818 14.7274C23.5316 14.7274 23.1719 14.4472 23.1719 14.0159C23.1719 13.5956 23.5179 13.3277 24.1291 13.2871L25.3565 13.2122Z" fill="black"/>
</svg>
