<svg width="38" height="25" viewBox="0 0 38 25" fill="none" xmlns="http://www.w3.org/2000/svg">
<rect width="38" height="25" rx="2" fill="white"/>
<path d="M26.7925 10.2266C27.6191 10.2266 28.2579 10.4516 28.7464 10.9015C29.2348 11.3514 29.4602 11.9514 29.4602 12.7013V16.3007H28.4082V15.476H28.3706C27.9197 16.1509 27.281 16.4883 26.5295 16.4883C25.8907 16.4883 25.3271 16.3008 24.8763 15.9259C24.463 15.551 24.1999 15.026 24.1999 14.4636C24.1999 13.8637 24.4254 13.3762 24.8763 13.0013C25.3271 12.6263 25.9659 12.4763 26.7174 12.4763C27.3937 12.4763 27.9197 12.5889 28.333 12.8513V12.5889C28.333 12.2389 28.2021 11.889 27.9402 11.6609L27.8821 11.614C27.5815 11.3515 27.2058 11.2015 26.7925 11.2015C26.1538 11.2015 25.6653 11.464 25.3271 11.9889L24.3503 11.3889C24.9514 10.6015 25.7405 10.2266 26.7925 10.2266ZM21.4947 7.67688C22.1689 7.67688 22.8096 7.911 23.3219 8.34761L23.411 8.42672C23.937 8.87669 24.1999 9.55163 24.1999 10.264C24.1999 10.9764 23.937 11.6139 23.411 12.1013C22.8849 12.5887 22.2462 12.8512 21.4947 12.8512L19.6912 12.8137V16.3007H18.564V7.67688H21.4947ZM26.9428 13.3762C26.4919 13.3762 26.1162 13.4886 25.8156 13.7136C25.515 13.9011 25.3647 14.1635 25.3647 14.501C25.3647 14.8009 25.5151 15.0634 25.7405 15.2134C26.0035 15.4009 26.3041 15.5133 26.6047 15.5133C27.0255 15.5133 27.4463 15.35 27.7754 15.0539L27.8446 14.9884C28.2203 14.651 28.4082 14.2385 28.4082 13.7886C28.07 13.5261 27.5815 13.3761 26.9428 13.3761M21.5699 8.72666H19.6913V11.7264H21.5699C21.9832 11.7264 22.3965 11.5765 22.6595 11.2765C23.2607 10.7141 23.2607 9.77673 22.6971 9.21425L22.6595 9.17674C22.3589 8.8768 21.9832 8.68933 21.5699 8.72684M35.5471 10.4141L31.8273 18.9255H30.7001L32.0903 15.9634L29.6481 10.4516H30.8504L32.6163 14.6885H32.6539L34.3823 10.4516H35.5471V10.4141Z" fill="#5F6368"/>
<path d="M15.2199 12.0638C15.2199 11.7264 15.1824 11.389 15.1448 11.0515H10.4482V12.9638H13.1159C13.0032 13.5636 12.665 14.1261 12.139 14.4636V15.7009H13.7547C14.694 14.8385 15.22 13.5636 15.22 12.0639" fill="#4285F4"/>
<path d="M10.448 16.9007C11.8006 16.9007 12.9278 16.4507 13.7544 15.7008L12.1388 14.4635C11.6879 14.7634 11.1243 14.9509 10.448 14.9509C9.17048 14.9509 8.04329 14.0885 7.66755 12.8887H6.0144V14.1635C6.87856 15.8508 8.56936 16.9007 10.448 16.9007Z" fill="#34A853"/>
<path d="M7.66785 12.8886C7.44246 12.2887 7.44246 11.6138 7.66785 10.9764V9.70154H6.0147C5.30076 11.0889 5.30076 12.7387 6.0147 14.1634L7.66785 12.8886Z" fill="#FBBC04"/>
<path d="M10.4483 8.95178C11.1622 8.95178 11.8385 9.21427 12.3646 9.70168L13.7923 8.27689C12.8905 7.45198 11.6882 6.96456 10.4859 7.00201C8.6072 7.00201 6.87888 8.05191 6.05225 9.73919L7.70546 11.014C8.0436 9.81414 9.1708 8.95178 10.4483 8.95178Z" fill="#EA4335"/>
</svg>
