<svg width="23" height="23" viewBox="0 0 23 23" fill="none" xmlns="http://www.w3.org/2000/svg">
<g clip-path="url(#clip0_353_268)">
<path d="M17.6094 0H5.39062C2.41347 0 0 2.41347 0 5.39062V17.6094C0 20.5865 2.41347 23 5.39062 23H17.6094C20.5865 23 23 20.5865 23 17.6094V5.39062C23 2.41347 20.5865 0 17.6094 0Z" fill="white"/>
<path d="M17.6094 0H5.39062C2.41347 0 0 2.41347 0 5.39062V17.6094C0 20.5865 2.41347 23 5.39062 23H17.6094C20.5865 23 23 20.5865 23 17.6094V5.39062C23 2.41347 20.5865 0 17.6094 0Z" fill="#0A66C2"/>
<path d="M16.5955 19.5576H19.2252C19.3205 19.5576 19.4119 19.5198 19.4793 19.4524C19.5467 19.385 19.5846 19.2936 19.5846 19.1984L19.5859 13.6422C19.5859 10.7382 18.9602 8.50605 15.5665 8.50605C14.2764 8.45807 13.0599 9.12309 12.4034 10.2336C12.4002 10.239 12.3953 10.2432 12.3895 10.2455C12.3836 10.2479 12.3772 10.2483 12.3712 10.2466C12.3651 10.245 12.3597 10.2414 12.3559 10.2364C12.3521 10.2315 12.35 10.2254 12.3499 10.2191V9.13352C12.3499 9.0382 12.3121 8.9468 12.2447 8.8794C12.1773 8.812 12.0859 8.77414 11.9905 8.77414H9.49496C9.39964 8.77414 9.30824 8.812 9.24084 8.8794C9.17344 8.9468 9.13558 9.0382 9.13558 9.13352V19.1978C9.13558 19.2931 9.17344 19.3845 9.24084 19.4519C9.30824 19.5193 9.39964 19.5572 9.49496 19.5572H12.1245C12.2198 19.5572 12.3112 19.5193 12.3786 19.4519C12.446 19.3845 12.4839 19.2931 12.4839 19.1978V14.2229C12.4839 12.8162 12.7507 11.4539 14.4947 11.4539C16.2138 11.4539 16.2361 13.0636 16.2361 14.314V19.1983C16.2361 19.2936 16.274 19.385 16.3414 19.4524C16.4088 19.5198 16.5002 19.5576 16.5955 19.5576ZM3.41406 5.3572C3.41406 6.42311 4.29157 7.30016 5.35756 7.30016C6.42329 7.30007 7.30025 6.42248 7.30025 5.35675C7.30007 4.29103 6.42302 3.41406 5.3572 3.41406C4.29112 3.41406 3.41406 4.2913 3.41406 5.3572ZM4.03929 19.5576H6.67234C6.76765 19.5576 6.85906 19.5198 6.92645 19.4524C6.99385 19.385 7.03171 19.2936 7.03171 19.1983V9.13352C7.03171 9.0382 6.99385 8.9468 6.92645 8.8794C6.85906 8.812 6.76765 8.77414 6.67234 8.77414H4.03929C3.94397 8.77414 3.85256 8.812 3.78517 8.8794C3.71777 8.9468 3.67991 9.0382 3.67991 9.13352V19.1983C3.67991 19.2936 3.71777 19.385 3.78517 19.4524C3.85256 19.5198 3.94397 19.5576 4.03929 19.5576Z" fill="white"/>
</g>
<defs>
<clipPath id="clip0_353_268">
<rect width="23" height="23" fill="white"/>
</clipPath>
</defs>
</svg>
