<svg width="23" height="23" viewBox="0 0 23 23" fill="none" xmlns="http://www.w3.org/2000/svg">
<g clip-path="url(#clip0_353_263)">
<path d="M17.6094 0H5.39062C2.41347 0 0 2.41347 0 5.39062V17.6094C0 20.5865 2.41347 23 5.39062 23H17.6094C20.5865 23 23 20.5865 23 17.6094V5.39062C23 2.41347 20.5865 0 17.6094 0Z" fill="url(#paint0_radial_353_263)"/>
<path d="M17.6094 0H5.39062C2.41347 0 0 2.41347 0 5.39062V17.6094C0 20.5865 2.41347 23 5.39062 23H17.6094C20.5865 23 23 20.5865 23 17.6094V5.39062C23 2.41347 20.5865 0 17.6094 0Z" fill="url(#paint1_radial_353_263)"/>
<path d="M11.5008 2.51562C9.06083 2.51562 8.75455 2.52632 7.79628 2.56989C6.8398 2.61373 6.18691 2.76512 5.61568 2.9873C5.02469 3.21677 4.52345 3.52376 4.0241 4.02329C3.5243 4.52273 3.2173 5.02397 2.98713 5.6147C2.76431 6.1861 2.61275 6.83927 2.56971 7.79529C2.52686 8.75366 2.51562 9.06002 2.51562 11.5001C2.51562 13.9402 2.52641 14.2454 2.56989 15.2037C2.61391 16.1602 2.7653 16.8131 2.9873 17.3843C3.21695 17.9753 3.52394 18.4765 4.02347 18.9759C4.52273 19.4757 5.02397 19.7834 5.61452 20.0129C6.18619 20.2351 6.83918 20.3864 7.79547 20.4303C8.75384 20.4739 9.05984 20.4846 11.4997 20.4846C13.94 20.4846 14.2453 20.4739 15.2035 20.4303C16.16 20.3864 16.8136 20.2351 17.3853 20.0129C17.976 19.7834 18.4765 19.4757 18.9757 18.9759C19.4755 18.4765 19.7824 17.9753 20.0127 17.3846C20.2335 16.8131 20.3852 16.16 20.4301 15.2039C20.4731 14.2456 20.4844 13.9402 20.4844 11.5001C20.4844 9.06002 20.4731 8.75384 20.4301 7.79547C20.3852 6.839 20.2335 6.18619 20.0127 5.61496C19.7824 5.02397 19.4755 4.52273 18.9757 4.02329C18.476 3.52358 17.9762 3.21659 17.3848 2.98739C16.812 2.76512 16.1588 2.61364 15.2023 2.56989C14.2439 2.52632 13.9388 2.51562 11.498 2.51562H11.5008ZM10.6948 4.1347C10.9341 4.13434 11.201 4.1347 11.5008 4.1347C13.8997 4.1347 14.184 4.14332 15.1313 4.18636C16.0073 4.22643 16.4827 4.37279 16.7994 4.49578C17.2187 4.65858 17.5176 4.85327 17.8319 5.16781C18.1464 5.48227 18.341 5.78171 18.5042 6.20102C18.6272 6.51727 18.7738 6.99272 18.8136 7.8687C18.8567 8.81583 18.866 9.10027 18.866 11.498C18.866 13.8958 18.8567 14.1803 18.8136 15.1274C18.7736 16.0033 18.6272 16.4788 18.5042 16.7951C18.3414 17.2144 18.1464 17.513 17.8319 17.8272C17.5175 18.1417 17.2189 18.3363 16.7994 18.4992C16.4831 18.6227 16.0073 18.7687 15.1313 18.8088C14.1842 18.8518 13.8997 18.8612 11.5008 18.8612C9.1018 18.8612 8.81745 18.8518 7.8704 18.8088C6.99443 18.7684 6.51897 18.622 6.202 18.499C5.78279 18.3361 5.48325 18.1415 5.1688 17.8271C4.85435 17.5126 4.65975 17.2139 4.4965 16.7944C4.3735 16.4781 4.22697 16.0026 4.18708 15.1266C4.14404 14.1795 4.13542 13.8951 4.13542 11.4958C4.13542 9.09659 4.14404 8.81358 4.18708 7.86645C4.22715 6.99047 4.3735 6.51502 4.4965 6.19832C4.65939 5.77902 4.85435 5.47957 5.16889 5.16512C5.48334 4.85066 5.78279 4.65597 6.20209 4.49282C6.51879 4.36928 6.99443 4.22328 7.8704 4.18303C8.69921 4.14557 9.0204 4.13434 10.6948 4.13245V4.1347ZM16.2967 5.62646C15.7015 5.62646 15.2185 6.10893 15.2185 6.70423C15.2185 7.29945 15.7015 7.78236 16.2967 7.78236C16.8919 7.78236 17.3748 7.29945 17.3748 6.70423C17.3748 6.10902 16.8919 5.62611 16.2967 5.62611V5.62646ZM11.5008 6.88616C8.95284 6.88616 6.88697 8.95203 6.88697 11.5001C6.88697 14.0481 8.95284 16.113 11.5008 16.113C14.0489 16.113 16.114 14.0481 16.114 11.5001C16.114 8.95212 14.0487 6.88616 11.5006 6.88616H11.5008ZM11.5008 8.50524C13.1547 8.50524 14.4957 9.84598 14.4957 11.5001C14.4957 13.154 13.1547 14.4949 11.5008 14.4949C9.84679 14.4949 8.50605 13.154 8.50605 11.5001C8.50605 9.84598 9.84679 8.50524 11.5008 8.50524Z" fill="white"/>
</g>
<defs>
<radialGradient id="paint0_radial_353_263" cx="0" cy="0" r="1" gradientUnits="userSpaceOnUse" gradientTransform="translate(6.10937 24.7714) rotate(-90) scale(22.7947 21.2009)">
<stop stop-color="#FFDD55"/>
<stop offset="0.1" stop-color="#FFDD55"/>
<stop offset="0.5" stop-color="#FF543E"/>
<stop offset="1" stop-color="#C837AB"/>
</radialGradient>
<radialGradient id="paint1_radial_353_263" cx="0" cy="0" r="1" gradientUnits="userSpaceOnUse" gradientTransform="translate(-3.85259 1.65681) rotate(78.681) scale(10.1894 42.0009)">
<stop stop-color="#3771C8"/>
<stop offset="0.128" stop-color="#3771C8"/>
<stop offset="1" stop-color="#6600FF" stop-opacity="0"/>
</radialGradient>
<clipPath id="clip0_353_263">
<rect width="23" height="23" fill="white"/>
</clipPath>
</defs>
</svg>
