<svg width="38" height="37" viewBox="0 0 38 37" fill="none" xmlns="http://www.w3.org/2000/svg">
<path d="M29.6242 30.0625C28.31 31.9742 26.9167 33.8396 24.795 33.8704C22.6733 33.9167 21.9925 32.6525 19.5858 32.6525C17.1633 32.6525 16.4192 33.8396 14.4083 33.9167C12.3342 33.9938 10.7667 31.8817 9.43667 30.0163C6.72917 26.2083 4.655 19.1938 7.44167 14.4763C8.81917 12.1329 11.2892 10.6529 13.965 10.6067C15.9917 10.5758 17.9233 11.9479 19.1742 11.9479C20.4092 11.9479 22.7525 10.2983 25.2067 10.545C26.2358 10.5913 29.1175 10.9458 30.97 13.5975C30.8275 13.69 27.5342 15.5708 27.5658 19.4713C27.6133 24.1271 31.7617 25.6842 31.8092 25.6996C31.7617 25.8075 31.1442 27.9196 29.6242 30.0625ZM20.5833 5.39584C21.7392 4.11626 23.655 3.14501 25.2383 3.08334C25.4442 4.88709 24.7 6.70626 23.5917 8.00126C22.4992 9.31168 20.6942 10.3292 18.9208 10.1904C18.6833 8.41751 19.57 6.56751 20.5833 5.39584Z" fill="black"/>
</svg>
