<svg width="38" height="25" viewBox="0 0 38 25" fill="none" xmlns="http://www.w3.org/2000/svg">
<rect width="38" height="25" rx="2" fill="white"/>
<path d="M11.7719 22.5335V21.2028C11.7719 20.6926 11.4606 20.36 10.9272 20.36C10.6605 20.36 10.3716 20.4487 10.1715 20.737C10.016 20.4931 9.79379 20.36 9.4604 20.36C9.23807 20.36 9.01595 20.4265 8.83806 20.6705V20.4044H8.37134V22.5335H8.83806V21.358C8.83806 20.981 9.03812 20.8035 9.34934 20.8035C9.66035 20.8035 9.81606 21.0032 9.81606 21.358V22.5335H10.2828V21.358C10.2828 20.981 10.5049 20.8035 10.7939 20.8035C11.1051 20.8035 11.2606 21.0032 11.2606 21.358V22.5335H11.7719ZM18.6838 20.4044H17.9282V19.7612H17.4615V20.4044H17.0392V20.8257H17.4614V21.8016C17.4614 22.2896 17.6614 22.5778 18.1949 22.5778C18.3949 22.5778 18.617 22.5114 18.7728 22.4227L18.6393 22.0234C18.506 22.1121 18.3505 22.1343 18.2393 22.1343C18.0171 22.1343 17.9282 22.0013 17.9282 21.7794V20.8257H18.6838V20.4044ZM22.6399 20.3599C22.3732 20.3599 22.1954 20.4931 22.0843 20.6705V20.4044H21.6176V22.5335H22.0843V21.3359C22.0843 20.981 22.2398 20.7814 22.5287 20.7814C22.6176 20.7814 22.7288 20.8036 22.8177 20.8258L22.951 20.3822C22.8621 20.36 22.7288 20.36 22.6399 20.36M16.6613 20.5819C16.439 20.4266 16.1279 20.3601 15.7945 20.3601C15.2612 20.3601 14.9056 20.6262 14.9056 21.0476C14.9056 21.4025 15.1723 21.6021 15.639 21.6687L15.8612 21.6909C16.1057 21.7351 16.2391 21.8017 16.2391 21.9127C16.2391 22.0678 16.0613 22.1788 15.7501 22.1788C15.4388 22.1788 15.1944 22.0678 15.0388 21.957L14.8166 22.3118C15.0611 22.4892 15.3945 22.5779 15.7278 22.5779C16.3501 22.5779 16.7058 22.2897 16.7058 21.8904C16.7058 21.5134 16.4168 21.3137 15.9723 21.2473L15.7501 21.225C15.55 21.2028 15.3945 21.1586 15.3945 21.0255C15.3945 20.8702 15.55 20.7815 15.7945 20.7815C16.0613 20.7815 16.328 20.8923 16.4613 20.9589L16.6613 20.5819ZM29.063 20.3601C28.7962 20.3601 28.6184 20.4932 28.5073 20.6706V20.4045H28.0406V22.5336H28.5073V21.336C28.5073 20.9811 28.6629 20.7815 28.9517 20.7815C29.0407 20.7815 29.1519 20.8037 29.2408 20.8259L29.3741 20.3823C29.2852 20.3601 29.1519 20.3601 29.063 20.3601ZM23.1066 21.469C23.1066 22.1122 23.5511 22.5779 24.2401 22.5779C24.5512 22.5779 24.7735 22.5115 24.9957 22.3341L24.7735 21.957C24.5957 22.0901 24.4179 22.1565 24.2179 22.1565C23.84 22.1565 23.5733 21.8904 23.5733 21.469C23.5733 21.0698 23.84 20.8036 24.2179 20.7815C24.4179 20.7815 24.5957 20.848 24.7735 20.9811L24.9957 20.6041C24.7735 20.4266 24.5512 20.3601 24.2401 20.3601C23.5511 20.3601 23.1066 20.8259 23.1066 21.469ZM27.4183 21.469V20.4045H26.9516V20.6706C26.796 20.471 26.5738 20.3601 26.2848 20.3601C25.6848 20.3601 25.218 20.8259 25.218 21.469C25.218 22.1122 25.6848 22.5779 26.2848 22.5779C26.5959 22.5779 26.8183 22.4671 26.9516 22.2675V22.5336H27.4183V21.469ZM25.7069 21.469C25.7069 21.092 25.9514 20.7815 26.3514 20.7815C26.7293 20.7815 26.996 21.0698 26.996 21.469C26.996 21.8461 26.7293 22.1565 26.3514 22.1565C25.9514 22.1343 25.7069 21.8461 25.7069 21.469ZM20.1285 20.3601C19.5061 20.3601 19.0616 20.8036 19.0616 21.469C19.0616 22.1344 19.506 22.5779 20.1507 22.5779C20.4618 22.5779 20.773 22.4892 21.0175 22.2897L20.7952 21.957C20.6174 22.0901 20.3952 22.1788 20.1729 22.1788C19.884 22.1788 19.595 22.0457 19.5283 21.6686H21.1064V21.4913C21.1287 20.8036 20.7286 20.3601 20.1285 20.3601ZM20.1284 20.7593C20.4172 20.7593 20.6174 20.9368 20.6617 21.2695H19.5505C19.5949 20.9811 19.795 20.7593 20.1284 20.7593ZM31.7076 21.469V19.5616H31.2409V20.6706C31.0853 20.471 30.8631 20.3601 30.5741 20.3601C29.9741 20.3601 29.5074 20.8259 29.5074 21.469C29.5074 22.1122 29.9741 22.5779 30.5741 22.5779C30.8854 22.5779 31.1076 22.4671 31.2409 22.2675V22.5336H31.7076V21.469ZM29.9964 21.469C29.9964 21.092 30.2408 20.7815 30.6409 20.7815C31.0187 20.7815 31.2854 21.0698 31.2854 21.469C31.2854 21.8461 31.0187 22.1565 30.6409 22.1565C30.2408 22.1343 29.9964 21.8461 29.9964 21.469ZM14.3942 21.469V20.4045H13.9275V20.6706C13.7719 20.471 13.5497 20.3601 13.2607 20.3601C12.6607 20.3601 12.1939 20.8259 12.1939 21.469C12.1939 22.1122 12.6607 22.5779 13.2607 22.5779C13.5719 22.5779 13.7942 22.4671 13.9275 22.2675V22.5336H14.3942V21.469ZM12.6607 21.469C12.6607 21.092 12.9052 20.7815 13.3052 20.7815C13.683 20.7815 13.9498 21.0698 13.9498 21.469C13.9498 21.8461 13.683 22.1565 13.3052 22.1565C12.9052 22.1343 12.6607 21.8461 12.6607 21.469Z" fill="black"/>
<path d="M16.5059 4.23584H23.5068V16.7891H16.5059V4.23584Z" fill="#FF5F00"/>
<path d="M16.9503 10.5124C16.9503 7.96184 18.1504 5.69954 19.9951 4.23569C18.6394 3.17112 16.9281 2.52795 15.0612 2.52795C10.6383 2.52795 7.06006 6.09872 7.06006 10.5124C7.06006 14.9261 10.6383 18.4968 15.0611 18.4968C16.928 18.4968 18.6393 17.8536 19.9951 16.789C18.1504 15.3474 16.9503 13.0629 16.9503 10.5124Z" fill="#EB001B"/>
<path d="M32.9523 10.5124C32.9523 14.926 29.3741 18.4968 24.9513 18.4968C23.0844 18.4968 21.3731 17.8536 20.0173 16.789C21.8842 15.3252 23.0622 13.0629 23.0622 10.5124C23.0622 7.96184 21.862 5.69954 20.0173 4.23569C21.373 3.17112 23.0844 2.52795 24.9513 2.52795C29.3741 2.52795 32.9523 6.12094 32.9523 10.5124Z" fill="#F79E1B"/>
</svg>
