<?xml version="1.0" standalone="no"?>
<!DOCTYPE svg PUBLIC "-//W3C//DTD SVG 20010904//EN"
 "http://www.w3.org/TR/2001/REC-SVG-20010904/DTD/svg10.dtd">
<svg version="1.0" xmlns="http://www.w3.org/2000/svg"
 width="1200.000000pt" height="1200.000000pt" viewBox="0 0 1200.000000 1200.000000"
 preserveAspectRatio="xMidYMid meet">

<g transform="translate(0.000000,1200.000000) scale(0.100000,-0.100000)"
fill="#000000" stroke="none">
<path d="M460 9990 l0 -1550 1550 0 1550 0 0 1550 0 1550 -1550 0 -1550 0 0
-1550z m2660 0 l0 -1110 -1110 0 -1110 0 0 1110 0 1110 1110 0 1110 0 0 -1110z"/>
<path d="M1350 9990 l0 -660 660 0 660 0 0 660 0 660 -660 0 -660 0 0 -660z"/>
<path d="M4010 11320 l0 -220 220 0 220 0 0 -225 0 -225 -220 0 -220 0 0 -220
0 -220 220 0 220 0 0 -220 0 -220 445 0 445 0 -2 -222 -3 -223 -222 -3 -223
-2 0 -440 0 -440 -220 0 -220 0 0 440 0 440 -220 0 -220 0 0 -440 0 -440 220
0 220 0 0 -220 0 -220 220 0 220 0 0 -225 0 -225 -220 0 -220 0 0 -220 0 -220
-890 0 -890 0 0 220 0 220 -440 0 -440 0 0 220 0 220 -220 0 -220 0 0 -220 0
-220 220 0 220 0 0 -445 0 -445 -220 0 -220 0 0 -220 0 -220 -445 0 -445 0 0
-220 0 -220 220 0 220 0 0 -225 0 -225 -220 0 -220 0 0 -220 0 -220 440 0 440
0 2 223 3 222 663 3 662 2 0 440 0 440 225 0 225 0 0 -220 0 -220 220 0 220 0
0 -225 0 -225 -220 0 -220 0 0 -220 0 -220 -220 0 -220 0 0 -220 0 -220 220 0
220 0 0 -220 0 -220 440 0 440 0 0 885 0 885 -220 0 -220 0 0 220 0 220 445 0
445 0 0 -440 0 -440 220 0 220 0 0 -225 0 -225 445 0 445 0 0 220 0 220 -222
2 -223 3 -3 223 -2 222 -220 0 -220 0 0 220 0 220 445 0 445 0 0 225 0 225
443 -2 442 -3 3 -442 2 -443 220 0 220 0 0 -665 0 -665 220 0 220 0 0 -665 0
-665 -440 0 -440 0 0 -220 0 -220 220 0 220 0 0 -225 0 -225 -220 0 -220 0 0
-440 0 -440 440 0 440 0 0 440 0 440 225 0 225 0 0 -220 0 -220 220 0 220 0 0
220 0 220 445 0 445 0 0 -220 0 -220 -225 0 -225 0 0 -445 0 -445 443 2 442 3
3 222 2 223 220 0 220 0 0 220 0 220 223 -2 222 -3 3 -217 2 -218 440 0 440 0
0 220 0 220 -220 0 -220 0 0 440 0 440 -220 0 -220 0 -2 -217 -3 -218 -222 -3
-223 -2 0 -220 0 -220 -220 0 -220 0 0 1330 0 1330 220 0 220 0 0 220 0 220
220 0 220 0 0 220 0 220 -440 0 -440 0 0 -220 0 -220 -665 0 -665 0 0 -220 0
-220 -445 0 -445 0 0 445 0 445 220 0 220 0 0 220 0 220 225 0 225 0 0 -220 0
-220 440 0 440 0 0 220 0 220 -220 0 -220 0 0 220 0 220 -665 0 -665 0 0 -220
0 -220 -220 0 -220 0 0 445 0 445 220 0 220 0 0 220 0 220 445 0 445 0 0 -220
0 -220 663 -2 662 -3 3 -222 2 -223 220 0 220 0 0 225 0 225 220 0 220 0 0
220 0 220 -220 0 -220 0 0 220 0 220 220 0 220 0 0 220 0 220 -220 0 -220 0 0
-220 0 -220 -220 0 -220 0 0 -220 0 -220 -225 0 -225 0 0 440 0 440 -220 0
-220 0 0 -220 0 -220 -665 0 -665 0 0 220 0 220 -220 0 -220 0 0 -440 0 -440
-445 0 -445 0 0 885 0 885 -220 0 -220 0 0 225 0 225 220 0 220 0 0 220 0 220
223 -2 222 -3 3 -217 2 -218 220 0 220 0 0 440 0 440 220 0 220 0 0 220 0 220
-220 0 -220 0 0 445 0 445 -445 0 -445 0 0 -220 0 -220 223 -2 222 -3 0 -220
0 -220 -442 -3 -443 -2 0 -220 0 -220 -225 0 -225 0 0 220 0 220 -220 0 -220
0 0 225 0 225 220 0 220 0 0 220 0 220 -220 0 -220 0 0 -220 0 -220 -220 0
-220 0 0 220 0 220 -220 0 -220 0 0 -220z m2210 -1330 l0 -220 -220 0 -220 0
0 220 0 220 220 0 220 0 0 -220z m-440 -1995 l0 -885 -225 0 -225 0 0 885 0
885 225 0 225 0 0 -885z m-890 -1330 l0 -445 -220 0 -220 0 0 445 0 445 220 0
220 0 0 -445z m-1330 -220 l0 -225 -220 0 -220 0 0 225 0 225 220 0 220 0 0
-225z m0 -1775 l0 -220 -220 0 -220 0 0 220 0 220 220 0 220 0 0 -220z m5765
-1330 l0 -665 -665 0 -665 0 -3 655 c-1 360 0 661 3 668 3 10 142 12 667 10
l663 -3 0 -665z"/>
<path d="M8440 3340 l0 -220 220 0 220 0 0 220 0 220 -220 0 -220 0 0 -220z"/>
<path d="M8440 9990 l0 -1550 1550 0 1550 0 0 1550 0 1550 -1550 0 -1550 0 0
-1550z m2660 0 l0 -1110 -1110 0 -1110 0 0 1110 0 1110 1110 0 1110 0 0 -1110z"/>
<path d="M9330 9990 l0 -660 660 0 660 0 0 660 0 660 -660 0 -660 0 0 -660z"/>
<path d="M5340 10880 l0 -220 220 0 220 0 -2 218 -3 217 -217 3 -218 2 0 -220z"/>
<path d="M7550 10880 l0 -220 220 0 220 0 0 220 0 220 -220 0 -220 0 0 -220z"/>
<path d="M6670 8440 l0 -440 220 0 220 0 0 440 0 440 -220 0 -220 0 0 -440z"/>
<path d="M7550 8660 l0 -220 220 0 220 0 0 220 0 220 -220 0 -220 0 0 -220z"/>
<path d="M460 7770 l0 -220 220 0 220 0 0 -220 0 -220 -220 0 -220 0 0 -220 0
-220 220 0 220 0 0 220 0 220 220 0 220 0 0 220 0 220 -220 0 -220 0 0 220 0
220 -220 0 -220 0 0 -220z"/>
<path d="M3120 7770 l0 -220 440 0 440 0 0 220 0 220 -440 0 -440 0 0 -220z"/>
<path d="M11100 7770 l0 -220 -220 0 -220 0 0 -220 0 -220 220 0 220 0 0 -220
0 -220 220 0 220 0 0 660 0 660 -220 0 -220 0 0 -220z"/>
<path d="M11100 6000 l0 -220 -220 0 -220 0 0 -220 0 -220 218 -2 217 -3 3
-222 2 -223 220 0 220 0 0 665 0 665 -220 0 -220 0 0 -220z"/>
<path d="M6220 5560 l0 -220 220 0 220 0 0 220 0 220 -220 0 -220 0 0 -220z"/>
<path d="M460 4230 l0 -220 440 0 440 0 0 220 0 220 -440 0 -440 0 0 -220z"/>
<path d="M2230 4230 l0 -220 220 0 220 0 0 220 0 220 -220 0 -220 0 0 -220z"/>
<path d="M4450 4225 l0 -225 -220 0 -220 0 0 -440 0 -440 440 0 440 0 0 220 0
220 220 0 220 0 2 223 3 222 223 3 222 2 0 -445 0 -445 -220 0 -220 0 0 -220
0 -220 220 0 220 0 0 -225 0 -225 220 0 220 0 0 665 0 665 220 0 220 0 0 220
0 220 -220 0 -220 0 0 225 0 225 -885 0 -885 0 0 -225z"/>
<path d="M10660 4230 l0 -220 220 0 220 0 0 220 0 220 -220 0 -220 0 0 -220z"/>
<path d="M11100 3560 l0 -440 220 0 220 0 0 440 0 440 -220 0 -220 0 0 -440z"/>
<path d="M460 2010 l0 -1550 1550 0 1550 0 0 1550 0 1550 -1550 0 -1550 0 0
-1550z m2660 0 l0 -1110 -1110 0 -1110 0 0 1110 0 1110 1110 0 1110 0 0 -1110z"/>
<path d="M1350 2010 l0 -660 660 0 660 0 0 660 0 660 -660 0 -660 0 0 -660z"/>
<path d="M4890 2450 l0 -220 -220 0 -220 0 0 -220 0 -220 -220 0 -220 0 0
-220 0 -220 220 0 220 0 0 220 0 220 440 0 440 0 0 440 0 440 -220 0 -220 0 0
-220z"/>
<path d="M5338 1568 l-3 -223 -442 -3 -443 -2 0 -220 0 -220 -220 0 -220 0 0
-220 0 -220 1105 0 1105 0 0 440 0 440 -220 0 -220 0 0 225 0 225 -220 0 -220
0 -2 -222z"/>
<path d="M7550 900 l0 -440 220 0 220 0 0 220 0 220 223 2 222 3 3 218 2 217
-445 0 -445 0 0 -440z"/>
<path d="M9770 680 l0 -220 220 0 220 0 0 220 0 220 -220 0 -220 0 0 -220z"/>
<path d="M11100 680 l0 -220 220 0 220 0 0 220 0 220 -220 0 -220 0 0 -220z"/>
</g>
</svg>
