<svg width="55" height="46" viewBox="0 0 55 46" fill="none" xmlns="http://www.w3.org/2000/svg">
<rect width="58.3214" height="46" rx="9.03571" fill="#FDF8F8"/>
<g clip-path="url(#clip0_353_281)">
<path d="M40.2628 18.2982C40.2624 18.1418 40.2587 17.9855 40.2517 17.8293V8.96534L37.8013 11.4159C35.7956 8.96097 32.7446 7.39294 29.3271 7.39294C25.7707 7.39294 22.6111 9.09048 20.614 11.7196L24.6307 15.7784C25.0239 15.0518 25.581 14.4268 26.2577 13.9528C26.959 13.4057 27.9526 12.9581 29.3271 12.9581C29.4931 12.9581 29.6214 12.9776 29.7154 13.0141C31.4185 13.1486 32.8946 14.0884 33.7637 15.4524L30.9204 18.2956C34.5217 18.2815 38.59 18.2733 40.2626 18.2975" fill="#1C3AA9"/>
<path d="M29.2631 7.39331C29.1068 7.39375 28.9505 7.39747 28.7943 7.40448H19.9303L22.3809 9.85503C19.9259 11.8606 18.3579 14.9117 18.3579 18.3291C18.3579 21.8856 20.0554 25.0452 22.6845 27.0424L26.7434 23.0257C26.0168 22.6324 25.3917 22.0753 24.9178 21.3985C24.3706 20.6974 23.9231 19.7037 23.9231 18.3292C23.9231 18.1633 23.9426 18.035 23.979 17.9408C24.1136 16.2379 25.0533 14.7618 26.4174 13.8927L29.2606 16.7359C29.2465 13.1345 29.2381 9.0662 29.2625 7.39357" fill="#4285F4"/>
<path d="M18.3584 18.3288C18.3588 18.4858 18.3625 18.6421 18.3696 18.7977V27.6616L20.8201 25.2111C22.8257 27.666 25.8768 29.234 29.2942 29.234C32.8507 29.234 36.0103 27.5365 38.0075 24.9074L33.9908 20.8485C33.5975 21.5751 33.0404 22.2002 32.3636 22.6742C31.6625 23.2213 30.6688 23.6689 29.2943 23.6689C29.1284 23.6689 29.0001 23.6493 28.9059 23.6128C27.203 23.4784 25.7269 22.5385 24.8578 21.1745L27.701 18.3312C24.0995 18.3454 20.0313 18.3537 18.3587 18.3294" fill="#ABABAB"/>
<path d="M20.2036 33.4691C19.9373 33.4691 19.6985 33.5196 19.4872 33.6206C19.2776 33.7182 19.0936 33.8633 18.9498 34.0444C18.8052 34.2281 18.6938 34.4508 18.6157 34.7126C18.5399 34.9721 18.502 35.2626 18.502 35.5841V36.5107C18.502 36.8344 18.5399 37.126 18.6157 37.3855C18.6938 37.645 18.804 37.8666 18.9465 38.0504C19.0888 38.234 19.261 38.3752 19.4631 38.4739C19.6651 38.5728 19.8924 38.6222 20.1451 38.6222C20.4046 38.6222 20.632 38.5843 20.8272 38.5085C21.0246 38.4327 21.19 38.3236 21.3231 38.1812C21.4563 38.0366 21.5585 37.8621 21.6297 37.6576C21.7032 37.4532 21.7469 37.2213 21.7606 36.9619H21.1234C21.1073 37.1617 21.0797 37.3328 21.0407 37.4751C21.0016 37.6152 20.9442 37.7311 20.8685 37.823C20.795 37.9125 20.6985 37.9792 20.5791 38.0228C20.4619 38.0641 20.3173 38.0848 20.1451 38.0848C19.9614 38.0848 19.8053 38.0446 19.6766 37.9641C19.548 37.8816 19.4436 37.7691 19.3632 37.6266C19.2852 37.4842 19.2278 37.3177 19.191 37.1272C19.1565 36.9366 19.1393 36.7311 19.1393 36.5106V35.5771C19.1393 35.3406 19.1599 35.1259 19.2012 34.9329C19.2449 34.7401 19.3103 34.5759 19.3976 34.4405C19.4849 34.305 19.5951 34.2005 19.7284 34.1269C19.8615 34.0512 20.0199 34.0133 20.2036 34.0133C20.3576 34.0133 20.4896 34.0363 20.5997 34.0822C20.7101 34.1259 20.802 34.1948 20.8753 34.2889C20.9489 34.3807 21.0051 34.4978 21.0441 34.6402C21.0832 34.7826 21.1096 34.9525 21.1234 35.15H21.7606C21.7492 34.8791 21.7067 34.6391 21.6332 34.4301C21.5596 34.2211 21.4574 34.0455 21.3266 33.9031C21.1956 33.7607 21.0361 33.6528 20.8478 33.5793C20.6618 33.5058 20.4471 33.4692 20.2036 33.4691ZM35.7594 33.469C35.493 33.469 35.2541 33.5195 35.0429 33.6205C34.8333 33.7181 34.6493 33.8632 34.5055 34.0443C34.3609 34.228 34.2495 34.4507 34.1714 34.7124C34.0957 34.972 34.0578 35.2625 34.0578 35.5839V36.5106C34.0578 36.8343 34.0957 37.1259 34.1714 37.3854C34.2494 37.6449 34.3597 37.8665 34.5021 38.0503C34.6444 38.2339 34.8166 38.3751 35.0187 38.4738C35.2209 38.5726 35.4482 38.6221 35.7008 38.6221C35.9603 38.6221 36.1877 38.5841 36.3828 38.5083C36.5803 38.4326 36.7457 38.3235 36.8789 38.181C37.012 38.0364 37.1141 37.8619 37.1854 37.6575C37.259 37.4531 37.3026 37.2212 37.3163 36.9617H36.6791C36.663 37.1615 36.6354 37.3326 36.5964 37.475C36.5574 37.6151 36.5 37.731 36.4242 37.8228C36.3507 37.9124 36.2542 37.979 36.1349 38.0227C36.0176 38.064 35.8729 38.0847 35.7008 38.0847C35.5171 38.0847 35.3609 38.0444 35.2323 37.964C35.1037 37.8814 34.9992 37.7689 34.9189 37.6265C34.8409 37.4841 34.7834 37.3176 34.7467 37.1271C34.7123 36.9365 34.6951 36.731 34.6951 36.5105V35.577C34.6951 35.3405 34.7157 35.1258 34.757 34.9328C34.8007 34.7399 34.8661 34.5758 34.9534 34.4403C35.0407 34.3049 35.1509 34.2004 35.284 34.1268C35.4173 34.0511 35.5757 34.0132 35.7593 34.0132C35.9133 34.0132 36.0454 34.0362 36.1555 34.0821C36.2657 34.1258 36.3575 34.1946 36.4311 34.2888C36.5045 34.3806 36.5608 34.4977 36.5999 34.64C36.639 34.7824 36.6654 34.9524 36.6791 35.1498H37.3163C37.3048 34.8789 37.2624 34.639 37.1889 34.4299C37.1153 34.221 37.0131 34.0453 36.8822 33.9029C36.7513 33.7606 36.5917 33.6526 36.4035 33.5791C36.2175 33.5057 36.0028 33.469 35.7593 33.4689M23.8344 33.5378L22.219 38.5533H22.8665L23.2558 37.2442H24.9505L25.3466 38.5533H25.9942L24.3752 33.5381L23.8344 33.5378ZM26.676 33.5378V38.553H27.3063V36.5895H28.2742C28.5153 36.5895 28.7289 36.5562 28.9149 36.4897C29.1009 36.4208 29.2571 36.3221 29.3834 36.1934C29.512 36.0648 29.6084 35.9064 29.6727 35.718C29.7394 35.5275 29.7727 35.3117 29.7726 35.0705C29.7726 34.8477 29.7393 34.6433 29.6727 34.4574C29.6085 34.2691 29.5132 34.1072 29.3868 33.9717C29.2605 33.8339 29.1032 33.7271 28.9149 33.6514C28.7289 33.5756 28.5153 33.5377 28.2742 33.5377L26.676 33.5378ZM30.2548 33.5378V34.082H31.5707V38.553H32.2009V34.082H33.5203V33.5378H30.2548ZM38.167 33.5378V38.553H38.7972V36.2348H40.8159V38.553H41.4496V33.5378H40.8159V35.694H38.7973V33.5378H38.167ZM43.84 33.5378L42.2246 38.553H42.8722L43.2614 37.244H44.9561L45.3523 38.553H46L44.381 33.5378H43.84ZM27.3062 34.082H28.2742C28.428 34.082 28.5589 34.1095 28.6669 34.1646C28.777 34.2198 28.8666 34.2933 28.9356 34.3851C29.0083 34.4803 29.061 34.5893 29.0905 34.7054C29.125 34.8247 29.1422 34.9488 29.1422 35.0775C29.1422 35.2198 29.125 35.3508 29.0905 35.4702C29.061 35.5821 29.0082 35.6866 28.9356 35.7767C28.8666 35.8617 28.777 35.9282 28.6668 35.9764C28.559 36.0247 28.4281 36.0488 28.274 36.0488H27.3063L27.3062 34.082ZM24.1029 34.4195L24.7884 36.6998H23.4211L24.1029 34.4195ZM44.1088 34.4195L44.7941 36.6998H43.4267L44.1088 34.4195ZM14.4379 34.7571C14.2793 34.7571 14.1427 34.7973 14.0279 34.8778C13.9154 34.9582 13.8213 35.0672 13.7455 35.2049L13.7351 34.826H13.1428V38.553H13.7525V35.8868C13.81 35.7284 13.8915 35.6032 13.9971 35.5114C14.1049 35.4195 14.2415 35.3736 14.4069 35.3736C14.4598 35.3736 14.5069 35.3759 14.5481 35.3805C14.5896 35.3827 14.6344 35.3884 14.6825 35.3977L14.6792 34.8052C14.6648 34.7989 14.6497 34.7943 14.6342 34.7914C14.6141 34.7839 14.5934 34.7782 14.5724 34.7742C14.5484 34.7694 14.5243 34.7659 14.5 34.7639C14.4796 34.7596 14.4588 34.7573 14.438 34.757L14.4379 34.7571ZM16.4873 34.7571C16.3105 34.7571 16.1395 34.7881 15.9741 34.8502C15.8087 34.9122 15.6618 35.0144 15.5332 35.1567C15.4069 35.2968 15.3047 35.4805 15.2267 35.7078C15.1486 35.9329 15.1095 36.2096 15.1095 36.5379V36.9581C15.1095 37.2429 15.1428 37.4898 15.2095 37.6987C15.276 37.9078 15.3712 38.0812 15.4953 38.2189C15.6221 38.3546 15.7791 38.4584 15.9535 38.5221C16.1325 38.5886 16.3334 38.6219 16.5562 38.6219C16.7169 38.6219 16.8605 38.6058 16.9869 38.5737C17.1154 38.5416 17.229 38.5003 17.3279 38.4497C17.4203 38.4014 17.506 38.3412 17.5828 38.2706C17.6504 38.2081 17.7115 38.1388 17.7653 38.064L17.4484 37.6782C17.3979 37.7402 17.344 37.7976 17.2865 37.8503C17.229 37.9009 17.1659 37.9457 17.0971 37.9847C17.0251 38.0226 16.9487 38.0516 16.8697 38.0708C16.7783 38.0924 16.6847 38.1029 16.5908 38.1019C16.3082 38.1019 16.0912 38.0112 15.9397 37.8298C15.7904 37.6484 15.7158 37.3579 15.7158 36.9583V36.872H17.7963V36.5173C17.7963 36.2325 17.7722 35.9811 17.724 35.763C17.6757 35.5449 17.5988 35.3612 17.4932 35.2118C17.3904 35.065 17.25 34.9484 17.0867 34.8743C16.9214 34.7962 16.7216 34.7571 16.4873 34.7571ZM16.4873 35.2808C16.6205 35.2808 16.7308 35.3048 16.8181 35.353C16.9044 35.4003 16.9759 35.4707 17.0247 35.5562C17.0775 35.6435 17.1154 35.748 17.1384 35.8698C17.1637 35.9891 17.1797 36.1211 17.1866 36.2658V36.3485H15.7193C15.7285 36.1395 15.7538 35.9661 15.795 35.8283C15.8364 35.6905 15.8904 35.5815 15.957 35.5011C16.0259 35.4185 16.1051 35.3611 16.1947 35.3289C16.2887 35.296 16.3878 35.2796 16.4874 35.2806" fill="#A6A6A6"/>
</g>
<defs>
<clipPath id="clip0_353_281">
<rect width="32.8571" height="31.317" fill="white" transform="translate(13.1428 7.39288)"/>
</clipPath>
</defs>
</svg>
