<svg width="38" height="34" viewBox="0 0 38 34" fill="none" xmlns="http://www.w3.org/2000/svg">
<path d="M33.3988 0H4.10187C1.83625 0 0 1.82375 0 4.07312V22.6938C0 24.9425 1.83625 26.7675 4.10187 26.7675H8.42562V33.75L14.9194 26.7675H33.3988C35.665 26.7675 37.5006 24.9425 37.5006 22.6938V4.07312C37.5 1.82375 35.6644 0 33.3988 0ZM8.74188 16.0025C7.285 16.0025 6.105 14.8306 6.105 13.3837C6.105 11.9375 7.285 10.7656 8.74188 10.7656C10.1988 10.7656 11.3787 11.9375 11.3787 13.3837C11.3787 14.83 10.1988 16.0025 8.74188 16.0025ZM18.75 16.0025C17.2944 16.0025 16.1131 14.8306 16.1131 13.3837C16.1131 11.9375 17.2944 10.7656 18.75 10.7656C20.2056 10.7656 21.3869 11.9375 21.3869 13.3837C21.3869 14.83 20.2056 16.0025 18.75 16.0025ZM28.7581 16.0025C27.3013 16.0025 26.1213 14.8306 26.1213 13.3837C26.1213 11.9375 27.3013 10.7656 28.7581 10.7656C30.2138 10.7656 31.395 11.9375 31.395 13.3837C31.3944 14.8306 30.2138 16.0025 28.7581 16.0025Z" fill="#545454"/>
</svg>
