<svg width="48" height="41" viewBox="0 0 48 41" fill="none" xmlns="http://www.w3.org/2000/svg">
<path d="M0 20.5C0 9.45431 8.9543 0.5 20 0.5H28C39.0457 0.5 48 9.45431 48 20.5V20.5C48 31.5457 39.0457 40.5 28 40.5H20C8.95431 40.5 0 31.5457 0 20.5V20.5Z" fill="#04136F"/>
<path d="M21.112 9.61901C21.7821 9.61901 22.3253 9.10974 22.3253 8.48151V7.13926C22.3253 6.26355 21.3143 5.71622 20.5053 6.15413C20.1299 6.35726 19.8987 6.73289 19.8987 7.13926V8.48151C19.8987 9.10974 20.4419 9.61901 21.112 9.61901Z" fill="white"/>
<path d="M15.7248 11.0637C15.9539 11.2766 16.2638 11.3953 16.5864 11.3936C16.9088 11.3953 17.2189 11.2766 17.4478 11.0637C17.9264 10.6187 17.9264 9.89337 17.4478 9.44836L16.4286 8.50421C15.7192 7.93465 14.6181 8.29853 14.4465 9.15933C14.3791 9.49772 14.4788 9.8467 14.7177 10.1081L15.7248 11.0637Z" fill="white"/>
<path d="M13.2252 15.6707H14.657C15.591 15.6707 16.1748 14.7227 15.7078 13.9644C15.491 13.6125 15.0905 13.3956 14.657 13.3956H13.2252C12.2912 13.3956 11.7074 14.3436 12.1744 15.1019C12.3911 15.4539 12.7917 15.6707 13.2252 15.6707Z" fill="white"/>
<path d="M15.7247 18.0027L14.7176 18.9695C14.2471 19.4132 14.2471 20.1297 14.7176 20.5734C15.1909 21.0145 15.9553 21.0145 16.4284 20.5734L17.4477 19.6293C18.1109 19.0076 17.8074 17.946 16.9015 17.7184C16.4811 17.6128 16.0325 17.7255 15.7247 18.0139V18.0027Z" fill="white"/>
<path d="M19.8987 20.5848V21.9271C19.8987 22.8028 20.9097 23.35 21.7187 22.9122C22.0942 22.709 22.3253 22.3335 22.3253 21.9271V20.5848C22.3253 19.7091 21.3143 19.1618 20.5053 19.5997C20.1299 19.8028 19.8987 20.1784 19.8987 20.5848Z" fill="white"/>
<path d="M24.8493 18.0026C24.3707 18.4475 24.3707 19.173 24.8493 19.6179L25.8685 20.562C26.0955 20.7791 26.4057 20.902 26.7301 20.9033C27.664 20.8997 28.2436 19.9494 27.7732 19.1929C27.7198 19.1071 27.6546 19.0282 27.5793 18.9582L26.5722 18.0026C26.0976 17.554 25.3239 17.554 24.8493 18.0026Z" fill="white"/>
<path d="M26.3538 14.5331C26.3538 15.1615 26.897 15.6707 27.5671 15.6707H28.999C29.9329 15.6707 30.5167 14.7227 30.0498 13.9644C29.833 13.6125 29.4324 13.3956 28.999 13.3956H27.5671C26.897 13.3956 26.3538 13.9049 26.3538 14.5331Z" fill="white"/>
<path d="M25.7108 11.3936C26.0333 11.3953 26.3433 11.2766 26.5722 11.0637L27.5915 10.1081C28.25 9.48643 27.9436 8.4296 27.0401 8.20575C26.6207 8.10192 26.1742 8.21576 25.8685 8.50421L24.8493 9.44836C24.3707 9.89337 24.3707 10.6187 24.8493 11.0637C25.0783 11.2766 25.3882 11.3953 25.7108 11.3936Z" fill="white"/>
<path d="M21.112 18.4349C24.2971 18.4347 26.2878 15.2022 24.6951 12.6163C23.1025 10.0304 19.1212 10.0305 17.5286 12.6165C17.1656 13.2062 16.9745 13.8751 16.9745 14.5559C16.9745 16.6982 18.8269 18.435 21.112 18.4349Z" fill="white"/>
<path d="M33.6461 18.287C33.7957 18.0944 34.054 18.0047 34.3013 18.0595C34.7022 18.1333 35.0174 18.4243 35.1022 18.7989C35.3293 19.6483 36.4519 19.9487 37.1231 19.3397C37.2857 19.1921 37.4011 19.0048 37.4561 18.7989C37.5409 18.4243 37.856 18.1333 38.2569 18.0595C38.5043 18.0047 38.7625 18.0944 38.9121 18.287C39.3876 19.0407 40.555 19.0294 41.0136 18.2665C41.2503 17.873 41.216 17.3855 40.9263 17.0244C40.253 16.0758 39.0372 15.6002 37.8443 15.8186C37.4136 15.8931 37.0019 16.0436 36.631 16.2622C36.4333 16.3882 36.1734 16.3882 35.9758 16.2622C35.604 16.0453 35.1927 15.8949 34.7624 15.8186C33.5696 15.6002 32.3538 16.0758 31.6804 17.0244C31.1191 17.7242 31.5763 18.7313 32.5035 18.8373C32.9819 18.8919 33.4494 18.6759 33.6946 18.287H33.6461Z" fill="white"/>
<path d="M39.7614 29.594C37.7837 29.8443 36.4369 27.8877 36.4247 27.8764C35.9523 27.1463 34.8223 27.1463 34.3498 27.8764C33.637 28.9209 32.4201 29.568 31.0981 29.6054C29.9069 29.5759 28.8237 28.9509 28.2589 27.9674C27.8636 27.1899 26.726 27.0902 26.1839 27.7853C25.2955 28.8426 23.9753 29.5027 22.5438 29.6054C21.2293 29.5435 20.0234 28.9024 19.2921 27.8764C18.8482 27.2012 17.8221 27.1485 17.3021 27.7739C16.7821 28.3994 15.4699 29.9011 13.4194 29.6395C12.7388 29.5308 12.0988 29.9757 12.0119 30.6178C11.9185 31.2436 12.3871 31.8208 13.0553 31.9031C13.2777 31.9145 13.5005 31.9145 13.7227 31.9031C15.2024 31.8482 16.6201 31.3318 17.7511 30.4357C17.9702 30.2571 18.2963 30.2571 18.5154 30.4357C19.6191 31.3389 21.0304 31.8431 22.4953 31.8577C23.9926 31.8372 25.4416 31.3578 26.6208 30.4927C26.8435 30.3232 27.1624 30.3232 27.3851 30.4927C28.3961 31.3571 29.7177 31.8324 31.0859 31.8235C32.5306 31.8605 33.942 31.4127 35.0658 30.5609C35.2908 30.3852 35.6173 30.3852 35.8423 30.5609C37.0113 31.5468 38.5755 32.0149 40.1376 31.8463C41.0716 31.7325 41.5239 30.7134 40.9518 30.0119C40.6862 29.6865 40.2556 29.5184 39.8221 29.5712L39.7614 29.594Z" fill="white"/>
</svg>
