<svg width="51" height="40" viewBox="0 0 51 40" fill="none" xmlns="http://www.w3.org/2000/svg">
<rect y="3.8147e-06" width="51" height="40" rx="20" fill="#04136F"/>
<path d="M12.6209 15.8421H15.756L16.2379 24.6392H12.2038L12.6209 15.8421ZM10.0029 25.1279H40.4253V26.1054H42.8271V27.5715H44.4283V28.549H6V27.5715H7.60118V26.1054H10.0029V25.1279ZM42.0265 13.3066L25.2157 9L8.40177 13.3066V13.8872H42.0265V13.3066ZM11.6041 14.376H38.8241V15.3534H11.6041V14.376ZM34.6098 15.8421H37.7433L38.2293 24.6392H34.1895L34.6098 15.8421ZM27.2829 15.8421H30.4164L30.8967 24.6392H26.8609L27.2829 15.8421ZM19.9543 15.8421H23.0886L23.5657 24.6392H19.5316L19.9543 15.8421Z" fill="white"/>
</svg>
