<svg width="38" height="25" viewBox="0 0 38 25" fill="none" xmlns="http://www.w3.org/2000/svg">
<rect width="38" height="25" rx="2" fill="white"/>
<path d="M20.4345 10.9916C20.4151 12.5145 21.7945 13.3642 22.8335 13.8695C23.901 14.3879 24.2596 14.7203 24.2553 15.1839C24.2474 15.8934 23.4038 16.2065 22.6144 16.2187C21.2372 16.24 20.4365 15.8476 19.7999 15.5509L19.3038 17.8675C19.9425 18.1612 21.1251 18.4173 22.3515 18.4286C25.2303 18.4286 27.1137 17.0105 27.1239 14.8118C27.1352 12.0214 23.2562 11.8669 23.2827 10.6197C23.2918 10.2415 23.6535 9.83788 24.4459 9.73527C24.8381 9.68343 25.9209 9.64376 27.1484 10.2079L27.6303 7.96648C26.9701 7.72661 26.1216 7.49691 25.0652 7.49691C22.3556 7.49691 20.4499 8.93432 20.4345 10.9916ZM32.2599 7.68998C31.7343 7.68998 31.2913 7.99597 31.0936 8.46554L26.9813 18.264H29.858L30.4305 16.6852H33.9458L34.2778 18.264H36.8133L34.6008 7.68998H32.2599ZM32.6624 10.5464L33.4926 14.5171H31.2189L32.6624 10.5464ZM16.9467 7.69011L14.6791 18.2638H17.4204L19.6869 7.68984L16.9467 7.69011ZM12.8914 7.69011L10.0382 14.887L8.884 8.76757C8.74858 8.08444 8.21376 7.68998 7.61985 7.68998H2.95571L2.89038 7.99703C3.84791 8.20437 4.93583 8.5388 5.59494 8.89663C5.9983 9.11521 6.11332 9.3063 6.24583 9.82572L8.43187 18.264H11.3287L15.77 7.68998L12.8914 7.69011Z" fill="url(#paint0_linear_457_86)"/>
<defs>
<linearGradient id="paint0_linear_457_86" x1="1562.46" y1="40.3575" x2="1594.04" y2="-1082.35" gradientUnits="userSpaceOnUse">
<stop stop-color="#222357"/>
<stop offset="1" stop-color="#254AA5"/>
</linearGradient>
</defs>
</svg>
