<svg width="38" height="25" viewBox="0 0 38 25" fill="none" xmlns="http://www.w3.org/2000/svg">
<rect width="38" height="25" rx="2" fill="white"/>
<path d="M24.2977 14.6941C24.2977 14.3891 24.1724 14.222 23.9834 14.1027C23.791 13.9877 23.5589 13.972 23.2413 13.972H21.8329V16.6577H22.4498V15.6798H23.1098C23.3268 15.6798 23.4631 15.7027 23.5446 15.7991C23.6548 15.922 23.6411 16.1598 23.6411 16.3241V16.6555H24.2402V16.127C24.2402 15.8891 24.2265 15.7698 24.1443 15.6355C24.0637 15.5348 23.9591 15.4579 23.841 15.4127L23.8581 15.4048C24.0259 15.3384 24.2977 15.122 24.2977 14.6941ZM23.5021 15.0805L23.4768 15.077C23.3946 15.1291 23.2988 15.1334 23.1735 15.1334H22.4361V14.5341H23.1885C23.2988 14.5341 23.4056 14.5341 23.4918 14.5827C23.5348 14.6045 23.5706 14.6392 23.5946 14.6824C23.6186 14.7255 23.6298 14.7751 23.6267 14.8248C23.6267 14.9398 23.5836 15.0284 23.5055 15.0813L23.5021 15.0805ZM28.2056 16.082H27.0219V16.6555H28.2131C28.8293 16.6555 29.1716 16.3905 29.1716 15.8148C29.1716 15.5462 29.1114 15.3863 29.0012 15.2605C28.8622 15.1341 28.6404 15.0741 28.335 15.0634L27.992 15.0484C27.8962 15.0484 27.8284 15.0484 27.7572 15.0191C27.7165 15.0058 27.6812 14.979 27.6566 14.9428C27.632 14.9065 27.6194 14.8628 27.6209 14.8184C27.6209 14.7327 27.6353 14.662 27.7031 14.6213C27.7792 14.577 27.8659 14.5562 27.953 14.5613H29.0724V13.9891H27.8421C27.2006 13.9891 26.9685 14.4056 26.9685 14.7891C26.9685 15.6484 27.675 15.6034 28.2528 15.6184C28.3453 15.6184 28.4165 15.6327 28.4555 15.6734C28.4986 15.7041 28.5301 15.7741 28.5301 15.8448C28.5301 15.9191 28.498 15.9898 28.4589 16.0162C28.4062 16.0677 28.3234 16.082 28.2056 16.082ZM9.6771 1V10.617L10.4158 8.82776H12.0131L12.2192 9.27061V8.82776H14.0842L14.4943 9.79846L14.8941 8.83562H20.8313C21.099 8.83562 21.3407 8.89062 21.5194 9.06204V8.84205H23.1523V9.06204C23.4295 8.89847 23.776 8.84205 24.1717 8.84205H26.5495L26.7713 9.2849V8.84205H28.5219L28.7526 9.2849V8.83848H30.4506V12.6006H28.728L28.4 12.027V12.5849H26.2496L26.0175 11.9856H25.4828L25.237 12.5691H24.1313C23.6924 12.5691 23.3645 12.4727 23.1434 12.3427V12.5691H20.5041V11.7292C20.5041 11.6142 20.4794 11.6142 20.4116 11.5984H20.3151V12.5841H15.2124V12.1306L15.0201 12.5841H13.9575L13.772 12.1306V12.5727H11.7146L11.4825 11.9777H10.9512L10.7205 12.5727H9.67505V23.8561H31.3871V17.0855C31.1414 17.2148 30.8278 17.2562 30.4992 17.2562H28.9272V17.0141C28.7348 17.1705 28.4069 17.2562 28.0926 17.2562H23.1036V16.4012C23.1036 16.2862 23.0852 16.2862 22.9934 16.2862H22.9256V17.2605H21.2818V16.2455C21.0107 16.3762 20.693 16.3862 20.4329 16.3762H20.2405V17.2469H18.2516L17.7559 16.6584L17.2349 17.2319H14.004V13.4891H17.2992L17.773 14.0627L18.2796 13.4891H20.4794C20.7361 13.4891 21.1531 13.5198 21.3386 13.7056V13.4748H23.3248C23.5103 13.4748 23.9136 13.5198 24.1518 13.6898V13.4634H27.1293V13.6898C27.2793 13.5334 27.597 13.4634 27.864 13.4634H29.5893V13.6898C29.768 13.5491 30.0138 13.4634 30.3561 13.4634H31.4296V1.00071L9.6771 1ZM28.9895 15.2405C28.9929 15.2484 28.9929 15.2555 28.9971 15.2598C29.008 15.2663 29.0217 15.2663 29.0292 15.2777L28.9902 15.2441L28.9895 15.2405ZM31.4289 13.4591H31.4898V13.9877H31.4289V13.4591ZM31.4604 15.3148V15.307C31.4358 15.2848 31.4214 15.2634 31.3926 15.2405C31.2578 15.0955 31.0359 15.0355 30.697 15.0284L30.3657 15.0177C30.2589 15.0177 30.1911 15.0098 30.1199 14.9884C30.0793 14.975 30.044 14.9482 30.0194 14.9119C29.9948 14.8757 29.9822 14.8321 29.9836 14.7877C29.9836 14.702 30.0117 14.6341 30.0658 14.5934C30.1336 14.5527 30.2007 14.5455 30.3116 14.5455H31.4282L31.4289 13.9877H30.2589C29.6269 13.9877 29.3818 14.4041 29.3818 14.7877C29.3818 15.6427 30.0945 15.602 30.669 15.617C30.7655 15.617 30.8333 15.6277 30.8723 15.672C30.9154 15.7027 30.9435 15.7727 30.9435 15.8434C30.943 15.8766 30.9353 15.9092 30.9211 15.9389C30.9069 15.9685 30.8865 15.9945 30.8613 16.0148C30.8182 16.0662 30.7361 16.0812 30.6156 16.0812H29.438V16.6577H30.6121C30.9962 16.6577 31.2824 16.5462 31.4358 16.3155H31.4604C31.5426 16.1848 31.5857 16.0291 31.5857 15.8177C31.5857 15.5862 31.5426 15.4455 31.4604 15.3148ZM26.6542 14.5305V13.9763H24.614V16.6734H26.6542V16.1155H25.2199V15.5762H26.6186V15.0184H25.2199V14.5348L26.6542 14.5305ZM22.0116 9.36633H22.6353V12.0492H22.0116V9.36633ZM21.6584 10.0885L21.6508 10.0963C21.6508 9.79418 21.5331 9.6199 21.3407 9.50133C21.1442 9.38204 20.9135 9.37061 20.6033 9.37061H19.1984V12.0563H19.8146V11.0706H20.4712C20.6882 11.0706 20.8279 11.0999 20.9169 11.1856C21.0285 11.3163 21.0134 11.5463 21.0134 11.7063V12.0456H21.6303V11.5206C21.6303 11.2827 21.6159 11.1634 21.5297 11.0256C21.4494 10.9263 21.3465 10.8497 21.2305 10.8027C21.3623 10.7419 21.4739 10.6415 21.5508 10.5143C21.6277 10.3871 21.6666 10.2388 21.6625 10.0885H21.6584ZM20.8779 10.4649H20.8669C20.7813 10.5163 20.6882 10.5199 20.5636 10.5199H19.8112V9.92489H20.5636C20.6738 9.92489 20.7807 9.92846 20.8628 9.97346C20.945 10.0106 21.0018 10.0963 21.0018 10.2113C21.0018 10.3263 20.9587 10.4199 20.8779 10.4649ZM24.2114 9.92489H24.7858V9.35561H24.197C23.776 9.35561 23.4658 9.45632 23.2666 9.66918C23.0064 9.95489 22.938 10.327 22.938 10.7292C22.938 11.217 23.0482 11.5213 23.2666 11.7484C23.4768 11.9749 23.8547 12.0463 24.1505 12.0463H24.8645L25.0966 11.447H26.3653L26.6042 12.0463H27.8448V10.037L29.008 12.0463H29.8782V9.36704H29.2504V11.2384L28.1741 9.37061H27.243V11.8556L26.2085 9.32633H25.2918L24.4325 11.4434H24.158C23.9985 11.4434 23.8266 11.4142 23.7308 11.3127C23.6164 11.172 23.563 10.9706 23.563 10.6842C23.563 10.4127 23.6342 10.1963 23.7376 10.0849C23.8588 9.95418 23.9875 9.92489 24.2087 9.92489H24.2114ZM25.734 9.82489L26.1551 10.8884V10.892H25.3061L25.734 9.82489ZM11.8488 11.4463L12.0809 12.0456H13.329V9.94775L14.217 12.0456H14.7483L15.6356 9.94775L15.6499 12.0456H16.2805V9.37061H15.2611L14.5264 11.182L13.7247 9.36704H12.7299V11.9042L11.6886 9.36704H10.7794L9.68874 12.0463H10.3439L10.5795 11.4513H11.8495L11.8488 11.4463ZM11.221 9.82489L11.642 10.8884L11.6386 10.892H10.804L11.221 9.82489ZM20.4993 13.972H18.546L17.7682 14.8498L17.0158 13.972H14.5593V16.6577H16.9802L17.7607 15.7691L18.5138 16.6548H19.7003V15.7612H20.4671C21.0127 15.7612 21.5331 15.6048 21.5331 14.8613L21.5297 14.8577C21.5297 14.1141 20.9847 13.972 20.4993 13.972ZM16.6803 16.097H15.1721V15.5648H16.5119V15.0184H15.1721V14.5348H16.705L17.3759 15.3155L16.6769 16.1005L16.6803 16.097ZM19.0903 16.4134L18.1489 15.3191L19.0903 14.267V16.4134ZM20.5061 15.2148H19.7003V14.5298H20.5061C20.7272 14.5298 20.8916 14.6234 20.8916 14.8577C20.8916 15.092 20.7567 15.2148 20.5061 15.2148ZM18.7774 9.92489V9.36704H16.7337V12.0499H18.7774V11.4956H17.3431V10.9592H18.7377V10.4085H17.3431V9.92489H18.7774Z" fill="#006FCF"/>
</svg>
