<svg width="41" height="35" viewBox="0 0 41 35" fill="none" xmlns="http://www.w3.org/2000/svg">
<path fill-rule="evenodd" clip-rule="evenodd" d="M20.4024 3.94407C17.7084 3.94407 15.1248 5.01203 13.2198 6.91302C11.3149 8.81402 10.2447 11.3923 10.2447 14.0807V27.5962C10.2447 28.5293 9.48671 29.2857 8.55172 29.2857C6.30672 29.2857 4.15366 28.3957 2.5662 26.8115C0.978739 25.2275 0.0869141 23.0788 0.0869141 20.8385C0.0869141 18.5981 0.978739 16.4495 2.5662 14.8655C3.76992 13.6642 5.29885 12.8621 6.94649 12.5445C7.29251 9.52542 8.6512 6.69368 10.8256 4.5238C13.3655 1.98913 16.8104 0.565186 20.4024 0.565186C23.9944 0.565186 27.4394 1.98913 29.9794 4.5238C32.1536 6.69368 33.5124 9.52542 33.8584 12.5445C35.506 12.8621 37.0349 13.6642 38.2386 14.8655C39.8261 16.4495 40.718 18.5981 40.718 20.8385C40.718 23.0788 39.8261 25.2275 38.2386 26.8115C37.0099 28.0377 35.4424 28.848 33.7555 29.1515C33.4481 30.3877 32.7792 31.5193 31.8243 32.4127C30.4837 33.6667 28.6875 34.354 26.8357 34.354H23.7884V30.9751H26.8357C27.8576 30.9751 28.8171 30.5943 29.5085 29.9476C30.1962 29.3043 30.5602 28.4558 30.5602 27.5962V14.0807C30.5602 11.3923 29.4901 8.81402 27.585 6.91302C25.6801 5.01203 23.0964 3.94407 20.4024 3.94407ZM23.9937 22.7328C24.9462 21.7824 25.4813 20.4932 25.4813 19.149H15.3236C15.3236 20.4932 15.8587 21.7824 16.8111 22.7328C17.7636 23.6833 19.0555 24.2174 20.4024 24.2174C21.7494 24.2174 23.0413 23.6833 23.9937 22.7328ZM15.3236 15.7702C16.2585 15.7702 17.0165 15.0138 17.0165 14.0807C17.0165 13.1477 16.2585 12.3913 15.3236 12.3913C14.3886 12.3913 13.6306 13.1477 13.6306 14.0807C13.6306 15.0138 14.3886 15.7702 15.3236 15.7702ZM27.1743 14.0807C27.1743 15.0138 26.4163 15.7702 25.4813 15.7702C24.5463 15.7702 23.7884 15.0138 23.7884 14.0807C23.7884 13.1477 24.5463 12.3913 25.4813 12.3913C26.4163 12.3913 27.1743 13.1477 27.1743 14.0807Z" fill="#999999"/>
</svg>
