<svg width="42" height="50" viewBox="0 0 42 50" fill="none" xmlns="http://www.w3.org/2000/svg">
<path d="M20.7596 47.327C20.7596 47.327 38.4904 38.4616 38.4904 25.1635V9.64906L20.7596 3L3.02881 9.64906V25.1635C3.02881 38.4616 20.7596 47.327 20.7596 47.327Z" stroke="#04136E" stroke-width="5.13937" stroke-linecap="round" stroke-linejoin="round"/>
<g clip-path="url(#clip0_353_414)">
<path d="M16.3267 22.2823L19.8729 14.3034C20.5783 14.3034 21.2548 14.5836 21.7535 15.0824C22.2523 15.5812 22.5325 16.2577 22.5325 16.963V20.5092H27.5504C27.8074 20.5063 28.0619 20.5593 28.2964 20.6645C28.5309 20.7698 28.7398 20.9248 28.9084 21.1187C29.0771 21.3127 29.2015 21.541 29.2732 21.7878C29.3449 22.0347 29.362 22.2941 29.3234 22.5483L28.1 30.5271C28.0359 30.9499 27.8211 31.3353 27.4953 31.6123C27.1695 31.8892 26.7545 32.0391 26.3269 32.0342H16.3267M16.3267 22.2823V32.0342M16.3267 22.2823H13.6671C13.1969 22.2823 12.7459 22.4691 12.4134 22.8016C12.0808 23.1341 11.894 23.5851 11.894 24.0554V30.2612C11.894 30.7314 12.0808 31.1824 12.4134 31.5149C12.7459 31.8474 13.1969 32.0342 13.6671 32.0342H16.3267" stroke="#04136E" stroke-width="2.05575" stroke-linecap="round" stroke-linejoin="round"/>
</g>
<defs>
<clipPath id="clip0_353_414">
<rect width="21.277" height="21.277" fill="white" transform="translate(10.1211 12.5303)"/>
</clipPath>
</defs>
</svg>
