<svg width="47" height="46" viewBox="0 0 47 46" fill="none" xmlns="http://www.w3.org/2000/svg">
<g clip-path="url(#clip0_353_391)">
<path d="M33.267 40.2548V36.421C33.267 34.3874 32.4592 32.4372 31.0212 30.9992C29.5833 29.5613 27.633 28.7534 25.5994 28.7534H10.2643C8.23069 28.7534 6.28041 29.5613 4.84246 30.9992C3.40451 32.4372 2.59668 34.3874 2.59668 36.421V40.2548" stroke="#04136E" stroke-width="3.83379" stroke-linecap="round" stroke-linejoin="round"/>
<path d="M17.932 21.0859C22.1667 21.0859 25.5996 17.653 25.5996 13.4183C25.5996 9.18358 22.1667 5.75069 17.932 5.75069C13.6973 5.75069 10.2644 9.18358 10.2644 13.4183C10.2644 17.653 13.6973 21.0859 17.932 21.0859Z" stroke="#04136E" stroke-width="3.83379" stroke-linecap="round" stroke-linejoin="round"/>
<path d="M44.7685 40.2548V36.421C44.7672 34.7221 44.2018 33.0718 43.1609 31.7291C42.1201 30.3864 40.6628 29.4274 39.0178 29.0026" stroke="#04136E" stroke-width="3.83379" stroke-linecap="round" stroke-linejoin="round"/>
<path d="M31.3503 5.99989C32.9997 6.42219 34.4615 7.3814 35.5055 8.72631C36.5494 10.0712 37.1161 11.7253 37.1161 13.4279C37.1161 15.1304 36.5494 16.7845 35.5055 18.1294C34.4615 19.4743 32.9997 20.4335 31.3503 20.8558" stroke="#04136E" stroke-width="3.83379" stroke-linecap="round" stroke-linejoin="round"/>
</g>
<defs>
<clipPath id="clip0_353_391">
<rect width="46.0055" height="46.0055" fill="white" transform="translate(0.679932)"/>
</clipPath>
</defs>
</svg>
