<svg width="40" height="43" viewBox="0 0 40 43" fill="none" xmlns="http://www.w3.org/2000/svg">
<path d="M37 18.1364C37 29.9091 20 40 20 40C20 40 3 29.9091 3 18.1364C3 14.122 4.79107 10.272 7.97918 7.43334C11.1673 4.59472 15.4913 3 20 3C24.5087 3 28.8327 4.59472 32.0208 7.43334C35.2089 10.272 37 14.122 37 18.1364Z" stroke="#04136E" stroke-width="4.28341" stroke-linecap="round" stroke-linejoin="round"/>
<path d="M19.86 25.058C22.2639 25.058 24.2126 23.1276 24.2126 20.7464C24.2126 18.3652 22.2639 16.4348 19.86 16.4348C17.4561 16.4348 15.5073 18.3652 15.5073 20.7464C15.5073 23.1276 17.4561 25.058 19.86 25.058Z" stroke="#04136E" stroke-width="4.28341" stroke-linecap="round" stroke-linejoin="round"/>
</svg>
