<svg width="51" height="40" viewBox="0 0 51 40" fill="none" xmlns="http://www.w3.org/2000/svg">
<rect width="51" height="40" rx="20" fill="#04136F"/>
<g clip-path="url(#clip0_590_309)">
<path d="M36.25 31.139C35.3749 30.9187 34.5891 30.4336 34 29.75C33.64 30.2041 33.1848 30.5738 32.6665 30.8329C32.1481 31.0921 31.5793 31.2345 31 31.25V31.223C30.4256 31.1966 29.8628 31.0521 29.3467 30.7987C28.8306 30.5453 28.3721 30.1883 28 29.75C27.64 30.2041 27.1848 30.5738 26.6665 30.8329C26.1481 31.0921 25.5793 31.2345 25 31.25V31.223C24.4256 31.1966 23.8628 31.0521 23.3467 30.7987C22.8306 30.5453 22.3721 30.1883 22 29.75C21.64 30.2041 21.1848 30.5738 20.6665 30.8329C20.1481 31.0921 19.5793 31.2345 19 31.25V31.223C18.4256 31.1966 17.8628 31.0521 17.3467 30.7987C16.8306 30.5453 16.3721 30.1883 16 29.75C15.4301 30.4617 14.6378 30.9614 13.75 31.169" stroke="white" stroke-width="1.5" stroke-linecap="round" stroke-linejoin="round"/>
<path d="M15.25 8.75L17.333 10.139C18.0764 10.6344 18.686 11.3058 19.1077 12.0934C19.5293 12.881 19.75 13.7606 19.75 14.654V20.4C19.7498 21.4079 20.0304 22.3959 20.5602 23.2533C21.0901 24.1107 21.8484 24.8035 22.75 25.254" stroke="white" stroke-width="1.5" stroke-linecap="round" stroke-linejoin="round"/>
<path d="M21.25 8.75L23.333 10.139C24.0764 10.6344 24.686 11.3058 25.1077 12.0934C25.5293 12.881 25.75 13.7606 25.75 14.654V20.4C25.7498 21.4079 26.0304 22.3959 26.5602 23.2533C27.0901 24.1107 27.8484 24.8035 28.75 25.254" stroke="white" stroke-width="1.5" stroke-linecap="round" stroke-linejoin="round"/>
<path d="M27.25 8.75L29.333 10.139C30.0764 10.6344 30.686 11.3058 31.1077 12.0934C31.5293 12.881 31.75 13.7606 31.75 14.654V20.4C31.7498 21.4079 32.0304 22.3959 32.5602 23.2533C33.0901 24.1107 33.8484 24.8035 34.75 25.254" stroke="white" stroke-width="1.5" stroke-linecap="round" stroke-linejoin="round"/>
</g>
<defs>
<clipPath id="clip0_590_309">
<rect width="24" height="24" fill="white" transform="translate(13 8)"/>
</clipPath>
</defs>
</svg>
